<svg width="739" height="658" viewBox="0 0 739 658" fill="none" xmlns="http://www.w3.org/2000/svg">
<path d="M492.605 120.531L510.236 68.3027C511.371 64.046 508.839 60.6105 504.533 60.6199L395.586 60.8156C391.28 60.8251 386.88 64.2867 385.745 68.5434L375.185 108.125L375.056 108.091L331.344 271.53C321.171 267.262 308.697 264.795 294.672 264.832C252.138 264.902 211.592 287.512 204.17 315.336C196.747 343.16 225.188 365.614 267.747 365.551C308.955 365.485 348.144 344.235 357.362 317.645L357.874 316.142L410.164 120.655L450.163 120.57L492.605 120.531Z" fill="white"/>
<path d="M294.416 239.359L304.562 202.672L225.421 159.87L326.884 106.878L339.06 60L160.484 155.033V164.708L294.416 239.359Z" fill="white"/>
<path d="M444.582 157.832L434.435 194.519L513.577 237.32L412.113 290.313L399.938 337.19L578.513 242.158V232.483L444.582 157.832Z" fill="white"/>
<path d="M140.624 520.184C134.248 516.611 127.094 513.216 119.372 510.131C114.814 508.23 110.401 506.217 106.297 504.154C102.323 502.173 99.0621 499.899 96.5639 497.414C94.3252 495.189 93.2383 492.721 93.2383 489.911C93.2383 486.322 94.5199 483.853 97.2614 482.18C100.311 480.313 104.059 479.371 108.374 479.371C114.798 479.371 120.622 480.897 125.683 483.918C130.339 486.695 134.346 490.187 137.606 494.296C139.018 496.066 141.5 496.505 143.381 495.287L158.712 485.461C160.674 484.194 161.323 481.563 160.123 479.566C157.398 475.018 153.747 470.893 149.27 467.304C144.29 463.325 138.499 460.093 132.074 457.722C125.602 455.334 118.61 454.116 111.261 454.116C103.913 454.116 96.7099 455.432 89.8478 458.014C82.856 460.661 77.0809 464.786 72.7171 470.276C68.2722 475.863 66.0173 482.96 66.0173 491.356C66.0173 499.753 68.1748 506.476 72.4088 511.966C76.5293 517.293 81.7042 521.678 87.8363 524.991C93.725 528.19 99.6623 530.984 105.535 533.339C110.596 535.223 115.463 537.269 120.005 539.445C124.304 541.508 127.889 544.058 130.647 546.981C133.21 549.709 134.459 552.99 134.459 556.985C134.459 561.435 132.918 564.83 129.755 567.347C126.478 569.962 121.806 571.293 115.868 571.293C110.856 571.293 106.2 570.351 102.031 568.484C97.813 566.6 94.0494 564.001 90.8212 560.769C87.9174 557.862 85.2731 554.712 82.9371 551.382C81.6069 549.498 79.0276 548.962 77.0809 550.164L62.0752 559.47C60.1286 560.672 59.431 563.189 60.5017 565.203C63.0486 570.01 66.6337 574.785 71.1597 579.414C76.2373 584.595 82.5316 588.882 89.8641 592.163C97.229 595.46 105.6 597.116 114.717 597.116C128.895 597.116 140.51 593.024 149.27 584.968C158.079 576.864 162.556 566.567 162.556 554.403C162.556 546.039 160.512 539.072 156.473 533.664C152.547 528.434 147.226 523.903 140.624 520.2V520.184Z" fill="white"/>
<path d="M271.01 458.712C262.147 455.659 252.89 454.116 243.534 454.116C230.15 454.116 217.884 457.218 207.048 463.357C196.229 469.496 187.547 478.023 181.233 488.709C174.919 499.395 171.713 511.82 171.713 525.624C171.713 539.429 174.919 551.593 181.217 562.377C187.531 573.161 196.212 581.736 207.032 587.875C217.851 594.014 230.117 597.116 243.518 597.116C252.874 597.116 262.115 595.573 270.994 592.52C279.692 589.532 286.581 585.277 291.465 579.901C292.188 579.105 292.583 578.066 292.583 576.978V555.8C292.583 553.916 291.415 552.292 289.623 551.691C287.814 551.074 285.891 551.626 284.69 553.12C283.079 555.134 281.056 557.115 278.689 559.032C274.266 562.588 268.971 565.447 262.937 567.558C256.919 569.669 250.375 570.725 243.485 570.725C235.231 570.725 227.749 568.76 221.287 564.878C214.793 560.997 209.58 555.621 205.831 548.93C202.066 542.222 200.159 534.378 200.159 525.624C200.159 516.871 202.066 508.961 205.831 502.156C209.58 495.384 214.776 490.025 221.255 486.24C227.733 482.456 235.214 480.524 243.485 480.524C250.358 480.524 256.902 481.596 262.937 483.691C268.971 485.802 274.282 488.628 278.705 492.087C281.073 493.939 283.079 495.92 284.69 497.95C285.841 499.428 287.765 499.996 289.557 499.379C291.382 498.762 292.566 497.138 292.566 495.238V474.239C292.566 473.15 292.172 472.111 291.448 471.315C286.565 465.939 279.675 461.684 270.977 458.696L271.01 458.712Z" fill="white"/>
<path d="M411.898 463.357C401.355 457.218 389.262 454.116 375.926 454.116C362.59 454.116 350.739 457.218 340.099 463.357C329.475 469.496 320.951 478.023 314.751 488.709C308.551 499.395 305.402 511.82 305.402 525.624C305.402 539.429 308.551 551.593 314.734 562.377C320.934 573.161 329.459 581.736 340.083 587.875C350.707 594.014 362.751 597.116 375.91 597.116C389.068 597.116 401.355 593.998 411.882 587.875C422.409 581.736 430.885 573.161 437.085 562.377C443.285 551.593 446.417 539.234 446.417 525.624C446.417 512.015 443.269 499.395 437.069 488.709C430.885 478.039 422.409 469.512 411.882 463.373L411.898 463.357ZM375.926 570.709C367.821 570.709 360.475 568.744 354.129 564.862C347.752 560.98 342.634 555.605 338.953 548.914C335.255 542.206 333.383 534.362 333.383 525.608C333.383 516.854 335.255 508.945 338.953 502.14C342.634 495.368 347.736 490.008 354.097 486.224C360.459 482.44 367.805 480.507 375.926 480.507C384.047 480.507 391.377 482.424 397.755 486.224C404.116 490.008 409.218 495.368 412.899 502.14C416.596 508.945 418.469 516.854 418.469 525.608C418.469 534.362 416.596 542.206 412.899 548.914C409.202 555.605 404.1 560.98 397.722 564.862C391.361 568.744 384.031 570.709 375.926 570.709Z" fill="white"/>
<path d="M534.536 456.112C530.167 454.787 525.389 454.116 520.349 454.116C513.624 454.116 506.964 456.734 500.549 461.903C498.455 463.588 496.475 465.486 494.626 467.596V461.412C494.626 458.991 492.646 457.012 490.224 457.012H470.964C468.542 457.012 466.562 458.991 466.562 461.412V590.859C466.562 593.28 468.542 595.259 470.964 595.259H490.224C492.646 595.259 494.626 593.28 494.626 590.859V510.079C494.626 509.965 494.642 509.85 494.642 509.736C494.756 504.337 495.362 499.43 496.442 495.111C497.571 490.596 499.616 486.997 502.513 484.445C505.327 481.959 509.369 480.699 514.54 480.699C518.058 480.699 520.955 481.173 523.164 482.106C525.062 482.908 527.205 484.151 529.513 485.754C530.478 486.425 531.656 486.686 532.818 486.457C533.98 486.245 535.011 485.558 535.665 484.576L546.4 468.496C547.578 466.712 547.333 464.373 545.811 462.901C542.374 459.613 538.578 457.323 534.52 456.079L534.536 456.112Z" fill="white"/>
<path d="M671.224 487.13C666.013 476.575 658.434 468.342 648.698 462.658C638.994 456.991 627.233 454.116 613.74 454.116C600.247 454.116 588.191 457.137 577.916 463.08C567.625 469.04 559.522 477.5 553.838 488.218C548.169 498.887 545.311 511.456 545.311 525.616C545.311 539.777 548.071 552.037 553.544 562.69C559.032 573.407 566.824 581.9 576.724 587.974C586.623 594.031 598.107 597.116 610.865 597.116C625.485 597.116 638.39 594.161 649.22 588.331C659.512 582.793 668.267 574.609 675.226 564.021C675.863 563.047 676.092 561.862 675.831 560.725C675.57 559.572 674.883 558.581 673.871 557.948L658.401 548.253C656.359 546.97 653.647 547.587 652.357 549.634C647.963 556.486 642.654 561.699 636.577 565.142C630.026 568.844 622.349 570.728 613.74 570.728C605.131 570.728 597.78 568.909 591.834 565.32C585.921 561.764 581.363 556.503 578.308 549.699C576.234 545.103 574.829 539.76 574.126 533.801H674.41C676.729 533.801 678.641 531.998 678.788 529.708L678.853 528.815C678.951 527.321 679 525.86 679 524.479C679 510.173 676.386 497.604 671.224 487.146V487.13ZM578.717 499.439C581.869 492.895 586.427 487.828 592.259 484.337C598.123 480.845 605.343 479.059 613.74 479.059C620.797 479.059 627.004 480.602 632.199 483.622C637.394 486.659 641.526 490.897 644.483 496.24C646.607 500.072 647.979 504.473 648.583 509.377H575.286C576.119 505.74 577.263 502.427 578.7 499.439H578.717Z" fill="white"/>
</svg>
