<svg width="1102" height="312" viewBox="0 0 1102 312" fill="none" xmlns="http://www.w3.org/2000/svg">
<path d="M268.521 97.9329L279.591 65.203C280.304 62.5355 278.714 60.3826 276.01 60.3885L207.608 60.5111C204.905 60.517 202.142 62.6864 201.429 65.3539L194.799 90.1586L194.719 90.1369L167.274 192.559C160.887 189.885 153.055 188.339 144.249 188.362C117.545 188.406 92.0881 202.575 87.4276 220.011C82.7672 237.448 100.624 251.519 127.344 251.479C153.217 251.438 177.822 238.121 183.609 221.458L183.931 220.516L216.761 98.0104L241.874 97.9574L268.521 97.9329Z" fill="white"/>
<path d="M144.089 172.398L150.459 149.408L100.77 122.585L164.474 89.3769L172.118 60L60 119.554V125.617L144.089 172.398Z" fill="white"/>
<path d="M238.37 121.308L231.999 144.299L281.688 171.121L217.985 204.33L210.34 233.707L322.458 174.153V168.09L238.37 121.308Z" fill="white"/>
<path d="M469.796 149.971C463.029 146.176 455.437 142.572 447.241 139.295C442.403 137.277 437.72 135.138 433.364 132.948C429.146 130.843 425.685 128.429 423.033 125.79C420.657 123.427 419.504 120.805 419.504 117.822C419.504 114.01 420.864 111.388 423.774 109.612C427.011 107.629 430.988 106.628 435.568 106.628C442.386 106.628 448.567 108.249 453.939 111.457C458.88 114.407 463.133 118.115 466.593 122.478C468.091 124.358 470.726 124.824 472.723 123.531L488.993 113.096C491.077 111.751 491.765 108.957 490.491 106.835C487.599 102.006 483.725 97.6251 478.973 93.8134C473.687 89.5878 467.54 86.1556 460.722 83.6375C453.853 81.1021 446.432 79.8086 438.632 79.8086C430.833 79.8086 423.188 81.2056 415.905 83.948C408.485 86.7593 402.355 91.1401 397.724 96.9697C393.006 102.903 390.613 110.44 390.613 119.357C390.613 128.274 392.903 135.414 397.397 141.244C401.77 146.901 407.262 151.557 413.77 155.076C420.02 158.474 426.322 161.44 432.555 163.941C437.926 165.942 443.092 168.115 447.913 170.426C452.475 172.616 456.28 175.324 459.207 178.429C461.928 181.326 463.253 184.81 463.253 189.053C463.253 193.779 461.618 197.384 458.26 200.057C454.782 202.834 449.824 204.248 443.522 204.248C438.202 204.248 433.261 203.248 428.836 201.264C424.359 199.264 420.365 196.504 416.938 193.072C413.856 189.985 411.05 186.639 408.571 183.103C407.159 181.102 404.421 180.533 402.355 181.809L386.429 191.692C384.363 192.968 383.623 195.642 384.759 197.78C387.462 202.886 391.267 207.956 396.071 212.872C401.46 218.374 408.14 222.927 415.923 226.411C423.739 229.912 432.623 231.671 442.3 231.671C457.348 231.671 469.675 227.325 478.973 218.77C488.322 210.164 493.074 199.229 493.074 186.311C493.074 177.428 490.904 170.029 486.617 164.286C482.451 158.732 476.803 153.92 469.796 149.988V149.971Z" fill="white"/>
<path d="M608.181 84.6896C598.774 81.4471 588.949 79.8086 579.02 79.8086C564.814 79.8086 551.796 83.1028 540.295 89.6223C528.812 96.1418 519.598 105.197 512.897 116.545C506.195 127.894 502.792 141.088 502.792 155.749C502.792 170.409 506.195 183.327 512.879 194.779C519.58 206.232 528.795 215.338 540.278 221.858C551.761 228.377 564.779 231.671 579.002 231.671C588.932 231.671 598.739 230.033 608.163 226.79C617.395 223.617 624.707 219.098 629.89 213.389C630.658 212.544 631.077 211.44 631.077 210.285V187.794C631.077 185.793 629.838 184.069 627.935 183.431C626.016 182.775 623.974 183.362 622.7 184.948C620.99 187.087 618.843 189.191 616.33 191.226C611.636 195.004 606.017 198.039 599.612 200.281C593.225 202.523 586.279 203.644 578.967 203.644C570.207 203.644 562.266 201.557 555.408 197.435C548.515 193.313 542.983 187.604 539.004 180.498C535.007 173.375 532.983 165.045 532.983 155.749C532.983 146.452 535.007 138.053 539.004 130.826C542.983 123.634 548.497 117.942 555.373 113.924C562.249 109.905 570.189 107.853 578.967 107.853C586.262 107.853 593.207 108.991 599.612 111.216C606.017 113.458 611.653 116.459 616.348 120.133C618.861 122.099 620.99 124.203 622.7 126.359C623.922 127.929 625.963 128.532 627.866 127.877C629.803 127.222 631.059 125.497 631.059 123.479V101.178C631.059 100.022 630.64 98.9186 629.873 98.0735C624.69 92.3646 617.377 87.8458 608.146 84.6723L608.181 84.6896Z" fill="white"/>
<path d="M757.711 89.6223C746.521 83.1028 733.687 79.8086 719.532 79.8086C705.378 79.8086 692.8 83.1028 681.508 89.6223C670.232 96.1418 661.185 105.197 654.604 116.545C648.024 127.894 644.683 141.088 644.683 155.749C644.683 170.409 648.024 183.327 654.587 194.779C661.167 206.232 670.215 215.338 681.491 221.858C692.766 228.377 705.55 231.671 719.515 231.671C733.481 231.671 746.521 228.36 757.694 221.858C768.867 215.338 777.863 206.232 784.443 194.779C791.023 183.327 794.348 170.202 794.348 155.749C794.348 141.295 791.006 127.894 784.426 116.545C777.863 105.214 768.867 96.1591 757.694 89.6396L757.711 89.6223ZM719.532 203.627C710.93 203.627 703.133 201.54 696.399 197.418C689.63 193.296 684.198 187.587 680.291 180.481C676.367 173.358 674.379 165.028 674.379 155.731C674.379 146.435 676.367 138.036 680.291 130.809C684.198 123.617 689.613 117.925 696.365 113.907C703.116 109.888 710.913 107.836 719.532 107.836C728.152 107.836 735.931 109.871 742.7 113.907C749.452 117.925 754.867 123.617 758.774 130.809C762.698 138.036 764.686 146.435 764.686 155.731C764.686 165.028 762.698 173.358 758.774 180.481C754.849 187.587 749.435 193.296 742.666 197.418C735.914 201.54 728.135 203.627 719.532 203.627Z" fill="white"/>
<path d="M887.872 81.928C883.235 80.5209 878.164 79.8086 872.815 79.8086C865.677 79.8086 858.609 82.5882 851.801 88.0779C849.577 89.8673 847.476 91.8825 845.513 94.1236V87.5568C845.513 84.9856 843.412 82.8835 840.842 82.8835H820.4C817.83 82.8835 815.728 84.9856 815.728 87.5568V225.026C815.728 227.597 817.83 229.699 820.4 229.699H840.842C843.412 229.699 845.513 227.597 845.513 225.026V139.24C845.513 139.119 845.531 138.997 845.531 138.875C845.652 133.142 846.295 127.931 847.441 123.344C848.64 118.549 850.811 114.727 853.885 112.017C856.872 109.377 861.161 108.039 866.65 108.039C870.384 108.039 873.458 108.543 875.802 109.533C877.817 110.384 880.092 111.705 882.541 113.407C883.565 114.119 884.816 114.397 886.049 114.154C887.282 113.928 888.376 113.199 889.071 112.156L900.464 95.0791C901.714 93.1855 901.454 90.7012 899.839 89.1377C896.191 85.6458 892.162 83.2136 887.855 81.8933L887.872 81.928Z" fill="white"/>
<path d="M1032.95 114.868C1027.41 103.659 1019.37 94.9155 1009.04 88.8797C998.738 82.861 986.255 79.8086 971.935 79.8086C957.614 79.8086 944.819 83.0162 933.913 89.328C922.991 95.6571 914.391 104.642 908.358 116.024C902.342 127.354 899.308 140.702 899.308 155.74C899.308 170.778 902.238 183.798 908.046 195.111C913.871 206.493 922.141 215.512 932.648 221.962C943.154 228.395 955.343 231.671 968.883 231.671C984.4 231.671 998.097 228.533 1009.59 222.342C1020.51 216.461 1029.81 207.769 1037.19 196.525C1037.87 195.491 1038.11 194.232 1037.83 193.024C1037.56 191.8 1036.83 190.748 1035.75 190.076L1019.34 179.78C1017.17 178.418 1014.29 179.073 1012.92 181.246C1008.26 188.523 1002.62 194.059 996.172 197.715C989.22 201.647 981.072 203.648 971.935 203.648C962.798 203.648 954.996 201.716 948.685 197.905C942.409 194.128 937.572 188.541 934.33 181.315C932.128 176.434 930.637 170.761 929.891 164.432H1036.33C1038.79 164.432 1040.82 162.517 1040.97 160.086L1041.04 159.137C1041.15 157.551 1041.2 155.999 1041.2 154.533C1041.2 139.34 1038.42 125.992 1032.95 114.886V114.868ZM934.763 127.94C938.109 120.991 942.946 115.61 949.136 111.902C955.36 108.194 963.023 106.297 971.935 106.297C979.424 106.297 986.013 107.936 991.526 111.143C997.039 114.368 1001.43 118.869 1004.56 124.543C1006.82 128.613 1008.27 133.286 1008.92 138.495H931.122C932.006 134.632 933.22 131.114 934.746 127.94H934.763Z" fill="white"/>
</svg>
