<svg width="24" height="31" viewBox="0 0 24 31" fill="none" xmlns="http://www.w3.org/2000/svg">
<path d="M12 18.0004C12.825 18.0004 13.5312 17.7067 14.1187 17.1193C14.7061 16.5319 14.9998 15.8257 14.9998 15.0007C14.9998 14.1757 14.7061 13.4694 14.1187 12.882C13.5312 12.2946 12.825 12.0009 12 12.0009C11.175 12.0009 10.4688 12.2946 9.88135 12.882C9.29393 13.4694 9.00023 14.1757 9.00023 15.0007C9.00023 15.8257 9.29393 16.5319 9.88135 17.1193C10.4688 17.7067 11.175 18.0004 12 18.0004ZM5.99955 24.0009H18.0005V23.1387C18.0005 22.5387 17.8378 21.9884 17.5126 21.488C17.1874 20.9882 16.7374 20.6132 16.1626 20.363C15.5128 20.0882 14.8441 19.8758 14.1565 19.7258C13.4688 19.5758 12.75 19.5008 12 19.5008C11.25 19.5008 10.5312 19.5758 9.84355 19.7258C9.15593 19.8758 8.48721 20.0882 7.8374 20.363C7.26258 20.6132 6.81257 20.9882 6.48736 21.488C6.16215 21.9884 5.99955 22.5387 5.99955 23.1387V24.0009ZM21.488 30.0013H2.51196C1.83695 30.0013 1.24953 29.7511 0.749719 29.2507C0.249906 28.7509 0 28.1635 0 27.4885V2.51286C0 1.83785 0.249906 1.25043 0.749719 0.750619C1.24953 0.250206 1.83695 0 2.51196 0H15.0376L24 8.96332V27.4885C24 28.1635 23.7501 28.7509 23.2503 29.2507C22.7505 29.7511 22.1631 30.0013 21.488 30.0013ZM21.488 27.4885V10.0884L13.9125 2.51286H2.51196V27.4885H21.488Z" fill="url(#paint0_linear_349_3476)"/>
<defs>
<linearGradient id="paint0_linear_349_3476" x1="2.21359" y1="27.6778" x2="28.6009" y2="14.9079" gradientUnits="userSpaceOnUse">
<stop offset="0.520833" stop-color="#D9297D"/>
<stop offset="1" stop-color="#F18520"/>
</linearGradient>
</defs>
</svg>
