<svg width="24" height="24" viewBox="0 0 24 24" fill="none" xmlns="http://www.w3.org/2000/svg">
<path d="M17.3669 23.9649V19.6855H13.0874V17.3318H17.3669V13.0523H19.7206V17.3318H24V19.6855H19.7206V23.9649H17.3669ZM0 19.9705V17.5808H10.2707C10.2467 18.0327 10.2407 18.425 10.2527 18.7577C10.2647 19.0909 10.3063 19.4952 10.3777 19.9705H0ZM0 14.1222V11.7325H13.6942C13.2423 12.0652 12.8321 12.4338 12.4635 12.8383C12.0949 13.2423 11.7679 13.6703 11.4826 14.1222H0ZM0 8.23794V5.88424H21.3972V8.23794H0ZM0 2.38879V0H21.3972V2.38879H0Z" fill="url(#paint0_linear_349_3463)"/>
<defs>
<linearGradient id="paint0_linear_349_3463" x1="2.21359" y1="22.1089" x2="26.0367" y2="7.67591" gradientUnits="userSpaceOnUse">
<stop offset="0.520833" stop-color="#D9297D"/>
<stop offset="1" stop-color="#F18520"/>
</linearGradient>
</defs>
</svg>
