<svg width="24" height="24" viewBox="0 0 24 24" fill="none" xmlns="http://www.w3.org/2000/svg">
<path d="M5.2664 18.7H14.5V16.4664H5.2664V18.7ZM5.2664 13.1H18.7336V10.9H5.2664V13.1ZM5.2664 7.5336H18.7336V5.3H5.2664V7.5336ZM2.2336 24C1.6336 24 1.1112 23.7779 0.6664 23.3336C0.222134 22.8888 0 22.3664 0 21.7664V2.2336C0 1.6336 0.222134 1.1112 0.6664 0.6664C1.1112 0.222134 1.6336 0 2.2336 0H21.7664C22.3664 0 22.8888 0.222134 23.3336 0.6664C23.7779 1.1112 24 1.6336 24 2.2336V21.7664C24 22.3664 23.7779 22.8888 23.3336 23.3336C22.8888 23.7779 22.3664 24 21.7664 24H2.2336ZM2.2336 21.7664H21.7664V2.2336H2.2336V21.7664Z" fill="url(#paint0_linear_349_3469)"/>
<defs>
<linearGradient id="paint0_linear_349_3469" x1="2.21359" y1="22.1413" x2="26.0554" y2="7.71808" gradientUnits="userSpaceOnUse">
<stop offset="0.520833" stop-color="#D9297D"/>
<stop offset="1" stop-color="#F18520"/>
</linearGradient>
</defs>
</svg>
