<svg width="24" height="20" viewBox="0 0 24 20" fill="none" xmlns="http://www.w3.org/2000/svg">
<path d="M1.8 20C1.31093 20 0.8888 19.8277 0.5336 19.4832C0.177867 19.1387 0 18.7221 0 18.2336C0 17.7445 0.172267 17.3221 0.5168 16.9664C0.861333 16.6112 1.28907 16.4336 1.8 16.4336C2.28907 16.4336 2.7056 16.6112 3.0496 16.9664C3.39413 17.3221 3.5664 17.7445 3.5664 18.2336C3.5664 18.7221 3.39413 19.1387 3.0496 19.4832C2.7056 19.8277 2.28907 20 1.8 20ZM6.6664 19.3336V17.1H24V19.3336H6.6664ZM1.8 11.7664C1.31093 11.7664 0.8888 11.5941 0.5336 11.2496C0.177867 10.9056 0 10.4891 0 10C0 9.51093 0.172267 9.0944 0.5168 8.7504C0.861333 8.40587 1.28907 8.2336 1.8 8.2336C2.28907 8.2336 2.7056 8.40587 3.0496 8.7504C3.39413 9.0944 3.5664 9.51093 3.5664 10C3.5664 10.4891 3.39413 10.9056 3.0496 11.2496C2.7056 11.5941 2.28907 11.7664 1.8 11.7664ZM6.6664 11.1V8.9H24V11.1H6.6664ZM1.7664 3.5664C1.27787 3.5664 0.861333 3.3944 0.5168 3.0504C0.172267 2.70587 0 2.27787 0 1.7664C0 1.27787 0.172267 0.861333 0.5168 0.5168C0.861333 0.172267 1.27787 0 1.7664 0C2.27787 0 2.7056 0.172267 3.0496 0.5168C3.39413 0.861333 3.5664 1.27787 3.5664 1.7664C3.5664 2.27787 3.39413 2.70587 3.0496 3.0504C2.7056 3.3944 2.27787 3.5664 1.7664 3.5664ZM6.6664 2.9V0.6664H24V2.9H6.6664Z" fill="url(#paint0_linear_349_3432)"/>
<defs>
<linearGradient id="paint0_linear_349_3432" x1="2.21359" y1="18.4511" x2="23.5412" y2="2.96839" gradientUnits="userSpaceOnUse">
<stop offset="0.520833" stop-color="#D9297D"/>
<stop offset="1" stop-color="#F18520"/>
</linearGradient>
</defs>
</svg>
