<svg width="24" height="31" viewBox="0 0 24 31" fill="none" xmlns="http://www.w3.org/2000/svg">
<path d="M5.96265 23.7381H18.0374V21.263H5.96265V23.7381ZM5.96265 17.5135H18.0374V15.0007H5.96265V17.5135ZM2.51196 30.0014C1.83695 30.0014 1.24953 29.7511 0.749719 29.2507C0.249906 28.7509 0 28.1635 0 27.4885V2.51286C0 1.83785 0.249906 1.25043 0.749719 0.750619C1.24953 0.250206 1.83695 0 2.51196 0H15.5254L24 8.47551V27.4885C24 28.1635 23.7501 28.7509 23.2503 29.2507C22.7505 29.7511 22.1631 30.0014 21.488 30.0014H2.51196ZM14.2879 9.63834V2.51286H2.51196V27.4885H21.488V9.63834H14.2879Z" fill="url(#paint0_linear_349_3417)"/>
<defs>
<linearGradient id="paint0_linear_349_3417" x1="2.21359" y1="27.6778" x2="28.6009" y2="14.9079" gradientUnits="userSpaceOnUse">
<stop offset="0.520833" stop-color="#D9297D"/>
<stop offset="1" stop-color="#F18520"/>
</linearGradient>
</defs>
</svg>
